<?xml version="1.0" encoding="UTF-8"?>
<svg version="1.1" xmlns="http://www.w3.org/2000/svg" width="567" height="518">
<path d="M0 0 C187.11 0 374.22 0 567 0 C567 170.94 567 341.88 567 518 C379.89 518 192.78 518 0 518 C0 347.06 0 176.12 0 0 Z " fill="#1C1C1A" transform="translate(0,0)"/>
<path d="M0 0 C187.11 0 374.22 0 567 0 C567 170.94 567 341.88 567 518 C379.89 518 192.78 518 0 518 C0 347.06 0 176.12 0 0 Z M136.10220373 80.52390671 C134.46767704 84.19585998 132.38485255 87.54079647 130.25 90.9375 C129.51862808 92.1523209 128.7894334 93.36845545 128.0625 94.5859375 C126.14597794 97.75836227 124.20337744 100.91267888 122.25 104.0625 C118.02176056 110.90701535 113.9422166 117.83725062 109.85742188 124.76806641 C105.62229047 131.95327919 101.34994639 139.11479731 97.04736328 146.25976562 C95.25748271 149.23372103 93.47280722 152.21079776 91.6875 155.1875 C90.94143055 156.43100416 90.19533609 157.67449332 89.44921875 158.91796875 C89.05911621 159.56813965 88.66901367 160.21831055 88.26708984 160.88818359 C67.95800781 194.73665365 47.64892578 228.5851237 27.33984375 262.43359375 C26.51009033 263.82747314 26.51009033 263.82747314 25.66357422 265.24951172 C24.53471427 267.11592443 23.37898827 268.96629897 22.19970703 270.80126953 C21.36028564 272.12360596 21.36028564 272.12360596 20.50390625 273.47265625 C19.99802979 274.2500415 19.49215332 275.02742676 18.97094727 275.82836914 C17.81117503 277.92733693 17.81117503 277.92733693 18.24072266 280.09741211 C19.43526656 283.09068562 21.12122473 285.76950739 22.8125 288.5 C23.63178893 289.84358021 24.45078371 291.18733981 25.26953125 292.53125 C25.70990723 293.25054687 26.1502832 293.96984375 26.60400391 294.7109375 C29.09336873 298.79283407 31.54384449 302.89806783 34 307 C35.02845651 308.7149573 36.05710018 310.42980238 37.0859375 312.14453125 C37.58061523 312.96904785 38.07529297 313.79356445 38.58496094 314.64306641 C39.85997444 316.76676902 41.13655681 318.88951471 42.4140625 321.01171875 C43.15116508 322.23690493 43.88814769 323.46216329 44.625 324.6875 C45.16169312 325.57997437 45.16169312 325.57997437 45.70922852 326.49047852 C48.05721338 330.40413925 50.3713747 334.33654653 52.67431641 338.27685547 C56.2740799 344.43416256 59.93378947 350.53678192 63.75 356.5625 C68.64593946 364.2992811 73.22638372 372.21019239 77.81396484 380.13256836 C81.61810807 386.68357108 85.53324431 393.14297881 89.58935547 399.5402832 C92.57518664 404.26691965 95.37187862 409.07979183 98.1184082 413.94848633 C100.81495208 418.71567472 103.66757327 423.37008869 106.5546875 428.0234375 C115.4260211 442.38691228 123.98768108 456.94602249 132.55273438 471.4934082 C136.12932124 477.55778722 139.7759929 483.57150044 143.51171875 489.5390625 C144.79267788 491.65718389 145.90983552 493.78093571 147 496 C180.0372882 496.16017136 213.07447582 496.28354164 246.11206363 496.35745731 C250.01115178 496.36621241 253.91023916 496.37527265 257.80932617 496.38452148 C258.9736986 496.38727574 258.9736986 496.38727574 260.16159371 496.39008565 C272.73572866 496.42055702 285.30963992 496.47575555 297.8836421 496.54006957 C310.78274384 496.60549688 323.68172831 496.64440434 336.58098918 496.65861946 C344.54267915 496.66823145 352.50373691 496.6986042 360.46523229 496.75541527 C366.56698006 496.79674157 372.66818235 496.80119494 378.77008629 496.79175377 C381.27555235 496.79368413 383.78104171 496.80766909 386.28636551 496.83443832 C389.70117419 496.86914441 393.11325333 496.86094139 396.52812195 496.84178162 C398.02374547 496.87236645 398.02374547 496.87236645 399.54958361 496.90356916 C404.55321176 496.91585353 404.55321176 496.91585353 408.70565951 494.46923077 C409.99602001 492.69590669 411.02694906 490.96218683 412 489 C412.45503906 488.21238281 412.91007812 487.42476563 413.37890625 486.61328125 C413.76949219 485.85402344 414.16007812 485.09476562 414.5625 484.3125 C418.90783254 476.17060115 423.75970761 468.32595338 428.53222656 460.43017578 C430.59159471 457.02050336 432.63991126 453.60425403 434.6875 450.1875 C435.41399108 448.97651965 436.1405528 447.76558168 436.8671875 446.5546875 C437.22006836 445.96655273 437.57294922 445.37841797 437.93652344 444.77246094 C439.00195312 442.99674479 440.06738281 441.22102865 441.1328125 439.4453125 C441.49044678 438.84920166 441.84808105 438.25309082 442.21655273 437.63891602 C442.94764385 436.4205394 443.67892666 435.2022778 444.41040039 433.98413086 C446.60767663 430.32421418 448.79996113 426.66137349 450.98828125 422.99609375 C459.9042617 408.07808866 459.9042617 408.07808866 463.875 401.9375 C465.96362667 398.70531127 467.87593057 395.4417054 469.6796875 392.04296875 C472.97085974 385.96543336 476.53456136 380.06668687 480.14590454 374.17626953 C482.03933825 371.08723912 483.92388792 367.99279822 485.80859375 364.8984375 C486.17715988 364.29360535 486.54572601 363.68877319 486.92546082 363.06561279 C489.76403559 358.40176809 492.55815479 353.71397894 495.3125 349 C500.24560438 340.55953198 505.27774371 332.18022616 510.31689453 323.80273438 C512.13069372 320.78236672 513.93882391 317.75865379 515.74609375 314.734375 C516.38530762 313.66606445 517.02452148 312.59775391 517.68310547 311.49707031 C518.96922256 309.34653507 520.25342902 307.19485595 521.53564453 305.04199219 C524.36067598 300.31619068 527.21022403 295.62506217 530.24609375 291.03125 C530.72675293 290.29745117 531.20741211 289.56365234 531.70263672 288.80761719 C532.58016311 287.4798268 533.47276808 286.16182269 534.38330078 284.85644531 C535.7018413 282.94661964 535.7018413 282.94661964 537 280 C535.9422429 276.587347 534.3051211 273.63978381 532.4609375 270.59375 C531.96706543 269.77430908 531.47319336 268.95486816 530.96435547 268.1105957 C530.43986816 267.24909912 529.91538086 266.38760254 529.375 265.5 C528.56313232 264.15651489 528.56313232 264.15651489 527.73486328 262.78588867 C524.80590278 257.94626292 521.85064111 253.1235263 518.875 248.3125 C515.49677516 242.84895119 512.23363257 237.32409621 508.98730469 231.78173828 C504.23412225 223.67474194 499.38924352 215.62335862 494.54541016 207.5703125 C491.96460615 203.27794211 489.38880355 198.98257252 486.8125 194.6875 C485.81252368 193.02081913 484.8125242 191.35415215 483.8125 189.6875 C469.8671875 166.4453125 469.8671875 166.4453125 468.78344727 164.63891602 C468.05235615 163.4205394 467.32107334 162.2022778 466.58959961 160.98413086 C464.39232337 157.32421418 462.20003887 153.66137349 460.01171875 149.99609375 C453.69207411 139.39052436 453.69207411 139.39052436 447.125 128.9375 C444.98939842 125.62911002 443.03813506 122.28820796 441.1875 118.8125 C438.77930658 114.31298072 436.1653054 109.99640033 433.4375 105.6875 C428.17526567 97.36797449 423.16554977 88.90691093 418.17578125 80.421875 C417.66433469 79.60132126 417.15288813 78.78076752 416.62594318 77.93534851 C415 75 415 75 414.02216625 71.90457153 C412.52574019 67.94281141 411.20274957 65.81411889 408 63 C400.23686795 60.50783703 391.48505918 61.27687664 383.43676758 61.3203125 C380.88374892 61.29094951 378.33078341 61.25660441 375.77789307 61.21765137 C369.5652295 61.13796335 363.35466695 61.11526506 357.14156149 61.12240291 C352.08872953 61.12764029 347.03636231 61.1123831 341.98361778 61.08270264 C340.52635298 61.07430549 339.06908814 61.06591509 337.61182326 61.05753136 C336.88640956 61.05335725 336.16099586 61.04918314 335.41359993 61.04488254 C321.70085608 60.96931071 307.98896847 60.97345961 294.27610268 61.00075984 C281.7479459 61.02304682 269.22306484 60.93983166 256.6956735 60.80731797 C243.81749114 60.67215691 230.94087531 60.61172242 218.06197089 60.63018608 C210.83708287 60.63914685 203.61521966 60.61848728 196.39093971 60.51861572 C189.59150141 60.42541491 182.79996162 60.43711628 176.00001526 60.51832581 C173.51036972 60.53194839 171.02026416 60.51167612 168.53124046 60.45439148 C150.46177783 60.06734455 143.27998935 63.64519761 136.10220373 80.52390671 Z " fill="#FEFEFE" transform="translate(0,0)"/>
<path d="M0 0 C9.57921682 -0.11583441 19.15819271 -0.20468465 28.737957 -0.25906086 C33.18623333 -0.2851585 37.63403063 -0.32055889 42.08203125 -0.37719727 C46.37440957 -0.43151218 50.66632709 -0.46141928 54.95902252 -0.47438622 C56.59694932 -0.48362715 58.23485079 -0.50167292 59.87258148 -0.52865028 C62.16658575 -0.56493624 64.45868476 -0.56994592 66.75292969 -0.56762695 C68.05864929 -0.57873001 69.3643689 -0.58983307 70.70965576 -0.60127258 C74 0 74 0 76.34552002 2.35749817 C78.14097011 5.22515459 79.85995711 8.1025103 81.5 11.0625 C88.31078411 23.19574927 95.51478498 35.10709637 102.9375 46.875 C107.3291394 53.84141296 111.51780414 60.91844024 115.68896484 68.01855469 C120.24687501 75.76159002 124.89104489 83.45021658 129.5625 91.125 C131.0117997 93.50646117 132.46106371 95.88794402 133.91015625 98.26953125 C134.26046402 98.84523361 134.61077179 99.42093597 134.97169495 100.01408386 C140.44286167 109.01084792 145.84363525 118.04995972 151.24804688 127.08691406 C155.87409746 134.82074093 160.53402019 142.53032895 165.2734375 150.1953125 C165.84320313 151.12085938 166.41296875 152.04640625 167 153 C167.59039062 153.86367188 168.18078125 154.72734375 168.7890625 155.6171875 C170 158 170 158 169.72827148 159.87963867 C168.91616827 162.24407595 167.85794991 164.17238002 166.55859375 166.30859375 C166.06149902 167.13125732 165.5644043 167.9539209 165.05224609 168.80151367 C164.51937988 169.67138916 163.98651367 170.54126465 163.4375 171.4375 C162.89174316 172.33766846 162.34598633 173.23783691 161.78369141 174.1652832 C158.21710799 180.03925351 154.60797188 185.88670106 150.9921875 191.73046875 C148.22099625 196.27848262 145.52870251 200.87171016 142.85107422 205.4753418 C139.69521942 210.88187861 136.42029636 216.21103142 133.13232422 221.53808594 C129.57921229 227.29884413 126.07313079 233.08829706 122.5625 238.875 C122.1914917 239.48628754 121.8204834 240.09757507 121.43823242 240.72738647 C115.93106309 249.8017534 110.44686049 258.88928325 105 268 C103.19663252 271.00814884 101.3912566 274.01509236 99.58618164 277.0222168 C97.40415186 280.65799278 95.22447036 284.29515981 93.046875 287.93359375 C87.89143593 296.54306319 82.71875859 305.13831432 77.42578125 313.6640625 C76.00981983 315.91014329 76.00981983 315.91014329 75 318 C50.25 318 25.5 318 0 318 C1.66471173 313.83822068 3.37425829 310.62277858 5.75 306.875 C8.27125167 302.85439556 10.69989361 298.81189374 12.9375 294.625 C17.82625889 285.50991567 23.30391866 276.72706165 28.75 267.9375 C32.98272999 261.08571553 37.0662175 254.14789188 41.15576172 247.20996094 C44.21192606 242.02550669 47.27429584 236.84545203 50.375 231.6875 C50.88317261 230.84215698 50.88317261 230.84215698 51.40161133 229.97973633 C52.14971188 228.73605078 52.89801583 227.49248756 53.64648438 226.24902344 C56.64192757 221.27174662 59.63370211 216.29226883 62.625 211.3125 C63.24681152 210.27891357 63.86862305 209.24532715 64.50927734 208.18041992 C65.11723145 207.16826416 65.72518555 206.1561084 66.3515625 205.11328125 C66.88604004 204.22423096 67.42051758 203.33518066 67.97119141 202.41918945 C71.01050683 197.29697375 73.99891896 192.14471035 77 187 C50.27 187 23.54 187 -4 187 C-4 168.52 -4 150.04 -4 131 C23.06 131 50.12 131 78 131 C71.94417708 120.35366544 71.94417708 120.35366544 65.7109375 109.82421875 C65.18326279 108.95371635 65.18326279 108.95371635 64.64492798 108.06562805 C63.91847837 106.86832176 63.19114606 105.67155056 62.46289062 104.4753418 C61.36564256 102.67212196 60.27252005 100.86644537 59.1796875 99.06054688 C55.64365138 93.2330349 52.02972904 87.48270829 48.21142578 81.83569336 C46.74015262 79.606249 45.47109776 77.31229727 44.25 74.9375 C41.80013537 70.35511072 39.14841984 65.95239334 36.375 61.5625 C32.54844337 55.50269453 28.80451369 49.40027512 25.125 43.25 C24.62637451 42.41678223 24.12774902 41.58356445 23.61401367 40.72509766 C22.07487324 38.15074167 20.53719681 35.57551699 19 33 C16.89768452 29.47805643 14.79370323 25.95712006 12.6875 22.4375 C12.18847168 21.6026709 11.68944336 20.7678418 11.17529297 19.90771484 C7.92923489 14.4954475 4.59516688 9.16032333 1.109375 3.8984375 C0 2 0 2 0 0 Z " fill="#FDFDFD" transform="translate(281,120)"/>
<path d="M0 0 C0.33 1.32 0.66 2.64 1 4 C1.66 4 2.32 4 3 4 C1.72553565 6.5489287 0.53636507 6.80641644 -2 8 C-2.99 8.66 -3.98 9.32 -5 10 C-3.66511872 6.40608886 -2.03977277 3.24509304 0 0 Z " fill="#393937" transform="translate(377,401)"/>
<path d="M0 0 C1.98 0.495 1.98 0.495 4 1 C4.33 2.32 4.66 3.64 5 5 C3.02 5 1.04 5 -1 5 C-0.67 3.35 -0.34 1.7 0 0 Z " fill="#262624" transform="translate(308,170)"/>
<path d="M0 0 C0.97533063 2.63339271 1.019574 3.92348347 0.3125 6.6875 C-1 9 -1 9 -3.125 9.8125 C-3.74375 9.874375 -4.3625 9.93625 -5 10 C-3.66511872 6.40608886 -2.03977277 3.24509304 0 0 Z " fill="#373736" transform="translate(88,161)"/>
<path d="M0 0 C0.6875 1.6875 0.6875 1.6875 1 4 C-0.64076492 7.44560634 -1.78512442 8.85674962 -5 11 C-3.77472971 6.94718288 -2.30119506 3.55639236 0 0 Z " fill="#3C3C3A" transform="translate(122,104)"/>
<path d="M0 0 C2.375 0.1875 2.375 0.1875 5 1 C6.3125 3.5625 6.3125 3.5625 7 6 C6.01 6.33 5.02 6.66 4 7 C2.02 3.535 2.02 3.535 0 0 Z " fill="#2B2B29" transform="translate(28,296)"/>
<path d="M0 0 C4.875 1.75 4.875 1.75 6 4 C5.01 4.99 4.02 5.98 3 7 C0 2.25 0 2.25 0 0 Z " fill="#272725" transform="translate(424,233)"/>
<path d="M0 0 C1.32 1.65 2.64 3.3 4 5 C2.02 5.99 2.02 5.99 0 7 C-0.66 6.34 -1.32 5.68 -2 5 C-1.34 3.35 -0.68 1.7 0 0 Z " fill="#313131" transform="translate(450,135)"/>
<path d="M0 0 C0.99 1.32 1.98 2.64 3 4 C1.68 4.99 0.36 5.98 -1 7 C-1.66 6.34 -2.32 5.68 -3 5 C-2.01 3.35 -1.02 1.7 0 0 Z M0 2 C1 4 1 4 1 4 Z " fill="#2E2E2D" transform="translate(440,297)"/>
<path d="M0 0 C0.33 0.99 0.66 1.98 1 3 C-0.3125 4.5 -0.3125 4.5 -2 6 C-2.99 6 -3.98 6 -5 6 C-4.34 4.35 -3.68 2.7 -3 1 C-2.34 1.33 -1.68 1.66 -1 2 C-0.67 1.34 -0.34 0.68 0 0 Z " fill="#2E2E2C" transform="translate(446,291)"/>
<path d="M0 0 C2.72426311 2.35277269 3.8141763 4.62496331 5 8 C2.53199953 6.84826645 0.95216435 5.95216435 -1 4 C-0.34 4 0.32 4 1 4 C0.67 2.68 0.34 1.36 0 0 Z " fill="#393939" transform="translate(338,216)"/>
<path d="M0 0 C1.32 0 2.64 0 4 0 C3.34 1.98 2.68 3.96 2 6 C0.68 4.68 -0.64 3.36 -2 2 C-1.34 1.34 -0.68 0.68 0 0 Z " fill="#2C2C2C" transform="translate(459,401)"/>
<path d="M0 0 C4 4.625 4 4.625 4 8 C3.34 7.67 2.68 7.34 2 7 C2 6.01 2 5.02 2 4 C0.68 3.67 -0.64 3.34 -2 3 C-1.34 2.67 -0.68 2.34 0 2 C0 1.34 0 0.68 0 0 Z " fill="#3D3D3B" transform="translate(343,224)"/>
</svg>
